<svg width="24" height="24" viewBox="0 0 24 24" fill="none" xmlns="http://www.w3.org/2000/svg">
<path d="M4.14683 4.28324C4.24945 4.26839 4.3543 4.28234 4.44957 4.32328L4.9525 4.5391H4.95347L21.0482 11.4375L21.1537 11.4825C21.2549 11.5258 21.3411 11.5986 21.4017 11.6905C21.4623 11.7823 21.4945 11.89 21.4945 12C21.4945 12.1101 21.4623 12.2177 21.4017 12.3096C21.3411 12.4015 21.2548 12.4733 21.1537 12.5166H21.1546L21.0482 12.5616L4.9525 19.46L4.44859 19.6768C4.35359 19.7175 4.24914 19.7306 4.14683 19.7159C4.0444 19.7011 3.94723 19.6588 3.86754 19.5928C3.78793 19.5268 3.72822 19.4397 3.69469 19.3418C3.6612 19.2441 3.65577 19.139 3.67808 19.0381L3.79722 18.5049V18.502L5.11754 12.5625L5.24254 12L5.11754 11.4375L3.79722 5.49906L3.7982 5.49613L3.67906 4.96293C3.65637 4.86187 3.66131 4.75629 3.69469 4.65824C3.72811 4.56015 3.7888 4.47348 3.86851 4.40726C3.9482 4.34112 4.04435 4.29809 4.14683 4.28324ZM6.36754 11.878C6.38541 11.9584 6.3854 12.0417 6.36754 12.1221L6.26988 12.5625H18.1918L19.5043 12L18.1918 11.4375H6.26988L6.36754 11.878Z" fill="black"/>
</svg>
